<svg width="71" height="61" viewBox="0 0 71 61" fill="none" xmlns="http://www.w3.org/2000/svg">
<path d="M33.5214 6.30977L35.4595 8.54224L37.6243 6.30977C45.242 -1.19805 57.0532 -0.84885 64.8858 6.30977L65.4377 6.83357C73.0554 14.3414 71.1888 29.3477 63.9254 37.0674L62.97 38.0624L61.9064 39.1316C57.8079 43.1882 38.2264 59.7879 38.2264 59.7879C36.5582 61.1563 34.1306 61.1349 32.4876 59.7373L26.5203 54.6323L21.2075 50.0257C14.8923 44.5065 10.152 40.1871 6.98672 37.0674C-0.812327 29.3808 -2.31327 14.5202 5.48577 6.83357C13.2848 -0.853008 25.7223 -1.37681 33.5214 6.30977Z" fill="#FE0000"/>
</svg>
