<svg width="25" height="25" viewBox="0 0 25 25" fill="none" xmlns="http://www.w3.org/2000/svg">
<path d="M12.2288 2.9639L12.8933 3.85689L13.6355 2.9639C16.2473 -0.0392302 20.2968 0.10045 22.9823 2.9639L23.1715 3.17342C25.7833 6.17655 25.1433 12.1791 22.653 15.267L22.3255 15.6649L21.9608 16.0926C20.5556 17.7153 13.8419 24.3552 13.8419 24.3552C13.27 24.9025 12.4377 24.894 11.8744 24.3349L9.82845 22.2929L8.00689 20.4503C5.84168 18.2426 4.21646 16.5148 3.13121 15.267C0.457248 12.1923 -0.0573628 6.24805 2.6166 3.17342C5.29055 0.0987871 9.55484 -0.110733 12.2288 2.9639Z" fill="#FE0000"/>
</svg>
